<svg xmlns="http://www.w3.org/2000/svg" xmlns:xlink="http://www.w3.org/1999/xlink" width="2000" zoomAndPan="magnify" viewBox="0 0 1500 1499.999933" height="2000" preserveAspectRatio="xMidYMid meet" version="1.0"><defs><clipPath id="0e195c6018"><path d="M 87 88 L 1022 88 L 1022 1344 L 87 1344 Z M 87 88 " clip-rule="nonzero"/></clipPath><clipPath id="497f84e2e7"><path d="M 407.625 1431.238281 L -0.0078125 1191.289062 L 701.089844 0.230469 L 1108.726562 240.179688 Z M 407.625 1431.238281 " clip-rule="nonzero"/></clipPath><clipPath id="2207a0ca4c"><path d="M 203.808594 1311.265625 C 149.753906 1279.445312 110.550781 1227.457031 94.828125 1166.734375 C 79.105469 1106.011719 88.144531 1041.527344 119.964844 987.472656 L 580.8125 204.566406 C 612.632812 150.511719 664.621094 111.308594 725.34375 95.585938 C 786.066406 79.863281 850.546875 88.902344 904.605469 120.722656 C 958.660156 152.542969 997.863281 204.53125 1013.585938 265.253906 C 1029.308594 325.976562 1020.265625 390.460938 988.449219 444.515625 L 527.601562 1227.421875 C 495.78125 1281.476562 443.792969 1320.679688 383.070312 1336.402344 C 322.347656 1352.125 257.863281 1343.085938 203.808594 1311.265625 Z M 203.808594 1311.265625 " clip-rule="nonzero"/></clipPath><clipPath id="a1f424f0b5"><path d="M 0 0 L 935 0 L 935 1256 L 0 1256 Z M 0 0 " clip-rule="nonzero"/></clipPath><clipPath id="2baaeb0f13"><path d="M 320.625 1343.238281 L -87.007812 1103.289062 L 614.089844 -87.769531 L 1021.726562 152.179688 Z M 320.625 1343.238281 " clip-rule="nonzero"/></clipPath><clipPath id="bdb05ed305"><path d="M 116.808594 1223.265625 C 62.753906 1191.445312 23.550781 1139.457031 7.828125 1078.734375 C -7.894531 1018.011719 1.144531 953.527344 32.964844 899.472656 L 493.8125 116.566406 C 525.632812 62.511719 577.621094 23.308594 638.34375 7.585938 C 699.066406 -8.136719 763.546875 0.902344 817.605469 32.722656 C 871.660156 64.542969 910.863281 116.53125 926.585938 177.253906 C 942.308594 237.976562 933.265625 302.460938 901.449219 356.515625 L 440.601562 1139.421875 C 408.78125 1193.476562 356.792969 1232.679688 296.070312 1248.402344 C 235.347656 1264.125 170.863281 1255.085938 116.808594 1223.265625 Z M 116.808594 1223.265625 " clip-rule="nonzero"/></clipPath><clipPath id="ed67a161d6"><rect x="0" width="935" y="0" height="1256"/></clipPath><clipPath id="7e5dc0db57"><path d="M 1012.675781 857.792969 L 1500 857.792969 L 1500 1345.117188 L 1012.675781 1345.117188 Z M 1012.675781 857.792969 " clip-rule="nonzero"/></clipPath><clipPath id="ae6c4f4bc6"><path d="M 1256.339844 1345.117188 C 1390.90625 1345.117188 1500 1236.023438 1500 1101.453125 C 1500 966.886719 1390.90625 857.792969 1256.339844 857.792969 C 1121.769531 857.792969 1012.675781 966.886719 1012.675781 1101.453125 C 1012.675781 1236.023438 1121.769531 1345.117188 1256.339844 1345.117188 Z M 1256.339844 1345.117188 " clip-rule="nonzero"/></clipPath><clipPath id="a4e9fee69a"><path d="M 0.675781 0.792969 L 488 0.792969 L 488 488.117188 L 0.675781 488.117188 Z M 0.675781 0.792969 " clip-rule="nonzero"/></clipPath><clipPath id="732d3217bc"><path d="M 244.339844 488.117188 C 378.90625 488.117188 488 379.023438 488 244.453125 C 488 109.886719 378.90625 0.792969 244.339844 0.792969 C 109.769531 0.792969 0.675781 109.886719 0.675781 244.453125 C 0.675781 379.023438 109.769531 488.117188 244.339844 488.117188 Z M 244.339844 488.117188 " clip-rule="nonzero"/></clipPath><clipPath id="6b6da9cbff"><rect x="0" width="488" y="0" height="489"/></clipPath><clipPath id="4e09d54198"><rect x="0" width="1500" y="0" height="1432"/></clipPath></defs><g transform="matrix(1, 0, 0, 1, 0, 34)"><g clip-path="url(#4e09d54198)"><g clip-path="url(#0e195c6018)"><g clip-path="url(#497f84e2e7)"><g clip-path="url(#2207a0ca4c)"><g transform="matrix(1, 0, 0, 1, 87, 88)"><g clip-path="url(#ed67a161d6)"><g clip-path="url(#a1f424f0b5)"><g clip-path="url(#2baaeb0f13)"><g clip-path="url(#bdb05ed305)"><path fill="#1affab" d="M 320.625 1343.238281 L -87.007812 1103.289062 L 614.089844 -87.769531 L 1021.726562 152.179688 Z M 320.625 1343.238281 " fill-opacity="1" fill-rule="nonzero"/></g></g></g></g></g></g></g></g><g clip-path="url(#7e5dc0db57)"><g clip-path="url(#ae6c4f4bc6)"><g transform="matrix(1, 0, 0, 1, 1012, 857)"><g clip-path="url(#6b6da9cbff)"><g clip-path="url(#a4e9fee69a)"><g clip-path="url(#732d3217bc)"><path fill="#ffffff" d="M 488 488.117188 L 0.675781 488.117188 L 0.675781 0.792969 L 488 0.792969 Z M 488 488.117188 " fill-opacity="1" fill-rule="nonzero"/></g></g></g></g></g></g></g></g></svg>